<mxfile host="app.diagrams.net" modified="2023-11-16T17:16:17.255Z" agent="Mozilla/5.0 (X11; Linux x86_64) AppleWebKit/537.36 (KHTML, like Gecko) Chrome/117.0.0.0 Safari/537.36" etag="ypa44L8XdJrBZu1TW6rx" version="22.1.2" type="github">
  <diagram name="Page-1" id="nnHE7nX3uxUn4l1VIvUQ">
    <mxGraphModel dx="2214" dy="891" grid="1" gridSize="10" guides="1" tooltips="1" connect="1" arrows="1" fold="1" page="1" pageScale="1" pageWidth="850" pageHeight="1100" math="1" shadow="0">
      <root>
        <mxCell id="0" />
        <mxCell id="1" parent="0" />
        <mxCell id="qo67xkVb_f3bjXFK0P2n-1" style="edgeStyle=orthogonalEdgeStyle;rounded=0;orthogonalLoop=1;jettySize=auto;html=1;exitX=0.25;exitY=0;exitDx=0;exitDy=0;entryX=0.5;entryY=1;entryDx=0;entryDy=0;" edge="1" parent="1">
          <mxGeometry relative="1" as="geometry">
            <mxPoint x="-192" y="498" as="sourcePoint" />
            <mxPoint x="-190" y="477" as="targetPoint" />
          </mxGeometry>
        </mxCell>
        <mxCell id="qo67xkVb_f3bjXFK0P2n-2" value="" style="rounded=1;whiteSpace=wrap;html=1;arcSize=5;strokeColor=#DAE8FC;strokeWidth=2;" vertex="1" parent="1">
          <mxGeometry x="-265" y="498" width="300" height="137.5" as="geometry" />
        </mxCell>
        <mxCell id="qo67xkVb_f3bjXFK0P2n-3" style="edgeStyle=orthogonalEdgeStyle;rounded=0;orthogonalLoop=1;jettySize=auto;html=1;exitX=0.75;exitY=0;exitDx=0;exitDy=0;entryX=0.116;entryY=1;entryDx=0;entryDy=0;entryPerimeter=0;dashed=1;startArrow=classic;startFill=1;endArrow=none;endFill=0;strokeWidth=2;strokeColor=#FF0000;" edge="1" parent="1">
          <mxGeometry relative="1" as="geometry">
            <mxPoint x="142" y="680" as="sourcePoint" />
            <mxPoint x="141.8800000000001" y="550" as="targetPoint" />
          </mxGeometry>
        </mxCell>
        <mxCell id="qo67xkVb_f3bjXFK0P2n-4" style="rounded=0;orthogonalLoop=1;jettySize=auto;html=1;exitX=0.878;exitY=0.067;exitDx=0;exitDy=0;entryX=0.326;entryY=1;entryDx=0;entryDy=0;entryPerimeter=0;dashed=1;startArrow=classic;startFill=1;endArrow=none;endFill=0;strokeWidth=2;strokeColor=#FF0000;exitPerimeter=0;" edge="1" parent="1" source="qo67xkVb_f3bjXFK0P2n-44" target="qo67xkVb_f3bjXFK0P2n-17">
          <mxGeometry relative="1" as="geometry">
            <mxPoint x="175.5" y="632" as="sourcePoint" />
          </mxGeometry>
        </mxCell>
        <mxCell id="qo67xkVb_f3bjXFK0P2n-5" style="rounded=0;orthogonalLoop=1;jettySize=auto;html=1;exitX=1;exitY=0.25;exitDx=0;exitDy=0;entryX=0.881;entryY=1.04;entryDx=0;entryDy=0;entryPerimeter=0;dashed=1;startArrow=classic;startFill=1;endArrow=none;endFill=0;strokeWidth=2;strokeColor=#FF0000;" edge="1" parent="1" source="qo67xkVb_f3bjXFK0P2n-44" target="qo67xkVb_f3bjXFK0P2n-17">
          <mxGeometry relative="1" as="geometry">
            <mxPoint x="213" y="665" as="sourcePoint" />
          </mxGeometry>
        </mxCell>
        <mxCell id="qo67xkVb_f3bjXFK0P2n-6" style="edgeStyle=orthogonalEdgeStyle;rounded=0;orthogonalLoop=1;jettySize=auto;html=1;exitX=0.75;exitY=0;exitDx=0;exitDy=0;entryX=0.326;entryY=1;entryDx=0;entryDy=0;entryPerimeter=0;dashed=1;startArrow=classic;startFill=1;endArrow=none;endFill=0;strokeWidth=2;strokeColor=#FF0000;" edge="1" parent="1" target="qo67xkVb_f3bjXFK0P2n-17">
          <mxGeometry relative="1" as="geometry">
            <mxPoint x="240" y="680" as="sourcePoint" />
          </mxGeometry>
        </mxCell>
        <mxCell id="qo67xkVb_f3bjXFK0P2n-7" style="rounded=0;orthogonalLoop=1;jettySize=auto;html=1;exitX=0.5;exitY=0;exitDx=0;exitDy=0;entryX=0.116;entryY=1.08;entryDx=0;entryDy=0;entryPerimeter=0;dashed=1;endArrow=none;endFill=0;startArrow=classic;startFill=1;strokeWidth=2;strokeColor=#FF0000;" edge="1" parent="1" target="qo67xkVb_f3bjXFK0P2n-17">
          <mxGeometry relative="1" as="geometry">
            <mxPoint x="230" y="680" as="sourcePoint" />
          </mxGeometry>
        </mxCell>
        <mxCell id="qo67xkVb_f3bjXFK0P2n-8" style="rounded=0;orthogonalLoop=1;jettySize=auto;html=1;exitX=1;exitY=0;exitDx=0;exitDy=0;dashed=1;endArrow=none;endFill=0;startArrow=classic;startFill=1;strokeWidth=2;strokeColor=#FF0000;" edge="1" parent="1">
          <mxGeometry relative="1" as="geometry">
            <mxPoint x="480" y="550" as="targetPoint" />
            <mxPoint x="250" y="680" as="sourcePoint" />
          </mxGeometry>
        </mxCell>
        <mxCell id="qo67xkVb_f3bjXFK0P2n-9" style="edgeStyle=orthogonalEdgeStyle;rounded=0;orthogonalLoop=1;jettySize=auto;html=1;exitX=0.75;exitY=0;exitDx=0;exitDy=0;entryX=0.884;entryY=1.02;entryDx=0;entryDy=0;entryPerimeter=0;dashed=1;startArrow=classic;startFill=1;endArrow=none;endFill=0;strokeWidth=2;strokeColor=#FF0000;" edge="1" parent="1" target="qo67xkVb_f3bjXFK0P2n-17">
          <mxGeometry relative="1" as="geometry">
            <mxPoint x="480" y="680" as="sourcePoint" />
          </mxGeometry>
        </mxCell>
        <mxCell id="qo67xkVb_f3bjXFK0P2n-10" style="rounded=0;orthogonalLoop=1;jettySize=auto;html=1;exitX=0;exitY=0;exitDx=0;exitDy=0;entryX=0.07;entryY=0.98;entryDx=0;entryDy=0;entryPerimeter=0;startArrow=classic;startFill=1;endArrow=none;endFill=0;dashed=1;strokeWidth=2;strokeColor=#FF0000;" edge="1" parent="1" target="qo67xkVb_f3bjXFK0P2n-17">
          <mxGeometry relative="1" as="geometry">
            <mxPoint x="450" y="680" as="sourcePoint" />
          </mxGeometry>
        </mxCell>
        <mxCell id="qo67xkVb_f3bjXFK0P2n-11" style="rounded=0;orthogonalLoop=1;jettySize=auto;html=1;exitX=0.5;exitY=0;exitDx=0;exitDy=0;entryX=0.328;entryY=1.08;entryDx=0;entryDy=0;entryPerimeter=0;endArrow=none;endFill=0;startArrow=classic;startFill=1;dashed=1;strokeWidth=2;strokeColor=#FF0000;" edge="1" parent="1" target="qo67xkVb_f3bjXFK0P2n-17">
          <mxGeometry relative="1" as="geometry">
            <mxPoint x="470" y="680" as="sourcePoint" />
          </mxGeometry>
        </mxCell>
        <mxCell id="qo67xkVb_f3bjXFK0P2n-12" style="edgeStyle=orthogonalEdgeStyle;rounded=0;orthogonalLoop=1;jettySize=auto;html=1;exitX=1;exitY=0.25;exitDx=0;exitDy=0;entryX=0;entryY=0.25;entryDx=0;entryDy=0;strokeWidth=2;" edge="1" parent="1">
          <mxGeometry relative="1" as="geometry">
            <mxPoint x="607.5" y="594" as="sourcePoint" />
            <mxPoint x="707.5" y="594" as="targetPoint" />
          </mxGeometry>
        </mxCell>
        <mxCell id="qo67xkVb_f3bjXFK0P2n-13" value="&lt;font style=&quot;font-size: 23px;&quot;&gt;Forward&lt;/font&gt;" style="text;html=1;strokeColor=none;fillColor=none;align=center;verticalAlign=middle;whiteSpace=wrap;rounded=0;fontSize=23;" vertex="1" parent="1">
          <mxGeometry x="617.5" y="604" width="80" height="30" as="geometry" />
        </mxCell>
        <mxCell id="qo67xkVb_f3bjXFK0P2n-14" style="edgeStyle=orthogonalEdgeStyle;rounded=0;orthogonalLoop=1;jettySize=auto;html=1;exitX=0;exitY=0.75;exitDx=0;exitDy=0;entryX=1;entryY=0.75;entryDx=0;entryDy=0;strokeColor=#FF0000;dashed=1;strokeWidth=2;" edge="1" parent="1">
          <mxGeometry relative="1" as="geometry">
            <mxPoint x="710" y="670" as="sourcePoint" />
            <mxPoint x="610" y="670" as="targetPoint" />
          </mxGeometry>
        </mxCell>
        <mxCell id="qo67xkVb_f3bjXFK0P2n-15" value="&lt;font style=&quot;font-size: 23px;&quot;&gt;Backward&lt;/font&gt;" style="text;html=1;strokeColor=none;fillColor=none;align=center;verticalAlign=middle;whiteSpace=wrap;rounded=0;" vertex="1" parent="1">
          <mxGeometry x="600" y="680" width="115" height="30" as="geometry" />
        </mxCell>
        <mxCell id="qo67xkVb_f3bjXFK0P2n-16" style="rounded=0;orthogonalLoop=1;jettySize=auto;html=1;exitX=0;exitY=1;exitDx=0;exitDy=0;entryX=1;entryY=1;entryDx=0;entryDy=0;dashed=1;dashPattern=8 8;endArrow=none;endFill=0;strokeWidth=1;" edge="1" parent="1" source="qo67xkVb_f3bjXFK0P2n-17" target="qo67xkVb_f3bjXFK0P2n-2">
          <mxGeometry relative="1" as="geometry" />
        </mxCell>
        <mxCell id="qo67xkVb_f3bjXFK0P2n-17" value="&lt;font style=&quot;font-size: 25px;&quot;&gt;Policy Modifier&lt;/font&gt;" style="rounded=1;whiteSpace=wrap;html=1;fillColor=#dae8fc;strokeColor=#6c8ebf;" vertex="1" parent="1">
          <mxGeometry x="100" y="500" width="430" height="50" as="geometry" />
        </mxCell>
        <mxCell id="qo67xkVb_f3bjXFK0P2n-18" value="\( \frac{\partial\pi_{\theta _1}&#39;}{\partial\theta _1} \)" style="text;html=1;strokeColor=none;fillColor=none;align=center;verticalAlign=middle;whiteSpace=wrap;rounded=0;fontSize=15;fontColor=#000000;" vertex="1" parent="1">
          <mxGeometry x="153" y="460" width="17" height="30" as="geometry" />
        </mxCell>
        <mxCell id="qo67xkVb_f3bjXFK0P2n-19" style="rounded=0;orthogonalLoop=1;jettySize=auto;html=1;exitX=1;exitY=0;exitDx=0;exitDy=0;entryX=0;entryY=0;entryDx=0;entryDy=0;dashed=1;dashPattern=8 8;endArrow=none;endFill=0;" edge="1" parent="1" source="qo67xkVb_f3bjXFK0P2n-2" target="qo67xkVb_f3bjXFK0P2n-17">
          <mxGeometry relative="1" as="geometry" />
        </mxCell>
        <mxCell id="qo67xkVb_f3bjXFK0P2n-20" value="\( \pi_{\theta _{1}}&amp;nbsp; &amp;nbsp;\)" style="text;html=1;strokeColor=none;fillColor=none;align=center;verticalAlign=middle;whiteSpace=wrap;rounded=0;fontSize=20;" vertex="1" parent="1">
          <mxGeometry x="-201.25" y="649" width="22.5" height="26" as="geometry" />
        </mxCell>
        <mxCell id="qo67xkVb_f3bjXFK0P2n-21" style="edgeStyle=orthogonalEdgeStyle;rounded=0;orthogonalLoop=1;jettySize=auto;html=1;exitX=1;exitY=0.5;exitDx=0;exitDy=0;entryX=0.56;entryY=0.995;entryDx=0;entryDy=0;entryPerimeter=0;endArrow=none;endFill=0;dashed=1;" edge="1" parent="1" source="qo67xkVb_f3bjXFK0P2n-22">
          <mxGeometry relative="1" as="geometry">
            <mxPoint x="-97" y="588.8125" as="targetPoint" />
          </mxGeometry>
        </mxCell>
        <mxCell id="qo67xkVb_f3bjXFK0P2n-22" value="\( \pi_{\theta _{2}}&lt;br&gt;&amp;nbsp; \)" style="text;html=1;strokeColor=none;fillColor=none;align=center;verticalAlign=middle;whiteSpace=wrap;rounded=0;fontSize=20;" vertex="1" parent="1">
          <mxGeometry x="-140" y="649" width="22.5" height="26" as="geometry" />
        </mxCell>
        <mxCell id="qo67xkVb_f3bjXFK0P2n-23" style="edgeStyle=orthogonalEdgeStyle;rounded=0;orthogonalLoop=1;jettySize=auto;html=1;exitX=0.5;exitY=0;exitDx=0;exitDy=0;entryX=0.9;entryY=0.973;entryDx=0;entryDy=0;entryPerimeter=0;" edge="1" parent="1" source="qo67xkVb_f3bjXFK0P2n-24">
          <mxGeometry relative="1" as="geometry">
            <mxPoint x="-19" y="618.001" as="targetPoint" />
          </mxGeometry>
        </mxCell>
        <mxCell id="qo67xkVb_f3bjXFK0P2n-24" value="\( \pi_{\theta _{n}}&lt;br&gt;&amp;nbsp; \)" style="text;html=1;strokeColor=none;fillColor=none;align=center;verticalAlign=middle;whiteSpace=wrap;rounded=0;fontSize=20;" vertex="1" parent="1">
          <mxGeometry x="-30" y="649" width="22.5" height="26" as="geometry" />
        </mxCell>
        <mxCell id="qo67xkVb_f3bjXFK0P2n-25" value="" style="endArrow=none;dashed=1;html=1;dashPattern=1 3;strokeWidth=2;rounded=0;" edge="1" parent="1">
          <mxGeometry width="50" height="50" relative="1" as="geometry">
            <mxPoint x="-95" y="665" as="sourcePoint" />
            <mxPoint x="-55" y="665" as="targetPoint" />
          </mxGeometry>
        </mxCell>
        <mxCell id="qo67xkVb_f3bjXFK0P2n-26" value="" style="rounded=1;whiteSpace=wrap;html=1;fillColor=#dae8fc;strokeColor=#6c8ebf;fontSize=20;" vertex="1" parent="1">
          <mxGeometry x="-210" y="508" width="220" height="108.5" as="geometry" />
        </mxCell>
        <mxCell id="qo67xkVb_f3bjXFK0P2n-27" value="channel-mixing" style="rounded=1;whiteSpace=wrap;html=1;fillColor=#ffe6cc;strokeColor=#d79b00;fontSize=20;arcSize=41;" vertex="1" parent="1">
          <mxGeometry x="-201.25" y="515" width="202.5" height="37" as="geometry" />
        </mxCell>
        <mxCell id="qo67xkVb_f3bjXFK0P2n-28" value="agent-mixing" style="rounded=1;whiteSpace=wrap;html=1;fillColor=#e1d5e7;strokeColor=#9673a6;fontSize=20;arcSize=41;" vertex="1" parent="1">
          <mxGeometry x="-201.25" y="568" width="202.5" height="37" as="geometry" />
        </mxCell>
        <mxCell id="qo67xkVb_f3bjXFK0P2n-29" value="&lt;font style=&quot;font-size: 20px;&quot;&gt;N x&lt;/font&gt;" style="text;html=1;strokeColor=none;fillColor=none;align=center;verticalAlign=middle;whiteSpace=wrap;rounded=0;" vertex="1" parent="1">
          <mxGeometry x="-270" y="544" width="60" height="30" as="geometry" />
        </mxCell>
        <mxCell id="qo67xkVb_f3bjXFK0P2n-30" value="&lt;span style=&quot;font-size: 25px;&quot;&gt;Environment&lt;/span&gt;" style="rounded=1;whiteSpace=wrap;html=1;fillColor=#d5e8d4;strokeColor=#82b366;" vertex="1" parent="1">
          <mxGeometry x="100" y="400" width="430" height="50" as="geometry" />
        </mxCell>
        <mxCell id="qo67xkVb_f3bjXFK0P2n-31" value="&lt;span style=&quot;color: rgb(0, 0, 0); font-family: Helvetica; font-size: 20px; font-style: normal; font-variant-ligatures: normal; font-variant-caps: normal; font-weight: 400; letter-spacing: normal; orphans: 2; text-align: center; text-indent: 0px; text-transform: none; widows: 2; word-spacing: 0px; -webkit-text-stroke-width: 0px; background-color: rgb(255, 255, 255); text-decoration-thickness: initial; text-decoration-style: initial; text-decoration-color: initial; float: none; display: inline !important;&quot;&gt;\( a^{1&#39;} \)&lt;/span&gt;" style="text;whiteSpace=wrap;html=1;" vertex="1" parent="1">
          <mxGeometry x="98" y="460" width="20" height="40" as="geometry" />
        </mxCell>
        <mxCell id="qo67xkVb_f3bjXFK0P2n-32" style="edgeStyle=orthogonalEdgeStyle;rounded=0;orthogonalLoop=1;jettySize=auto;html=1;exitX=0.25;exitY=0;exitDx=0;exitDy=0;entryX=0.07;entryY=1.02;entryDx=0;entryDy=0;entryPerimeter=0;strokeWidth=2;" edge="1" parent="1">
          <mxGeometry relative="1" as="geometry">
            <mxPoint x="129.75" y="451" as="targetPoint" />
            <mxPoint x="129.75" y="500" as="sourcePoint" />
          </mxGeometry>
        </mxCell>
        <mxCell id="qo67xkVb_f3bjXFK0P2n-33" style="edgeStyle=orthogonalEdgeStyle;rounded=0;orthogonalLoop=1;jettySize=auto;html=1;exitX=0.25;exitY=0;exitDx=0;exitDy=0;entryX=0.279;entryY=1;entryDx=0;entryDy=0;entryPerimeter=0;strokeWidth=2;" edge="1" parent="1">
          <mxGeometry relative="1" as="geometry">
            <mxPoint x="219.75" y="500" as="sourcePoint" />
            <mxPoint x="219.75" y="450" as="targetPoint" />
          </mxGeometry>
        </mxCell>
        <mxCell id="qo67xkVb_f3bjXFK0P2n-34" style="edgeStyle=orthogonalEdgeStyle;rounded=0;orthogonalLoop=1;jettySize=auto;html=1;exitX=0.25;exitY=0;exitDx=0;exitDy=0;entryX=0.835;entryY=1;entryDx=0;entryDy=0;entryPerimeter=0;strokeWidth=2;" edge="1" parent="1">
          <mxGeometry relative="1" as="geometry">
            <mxPoint x="459.75" y="500" as="sourcePoint" />
            <mxPoint x="459.75" y="450" as="targetPoint" />
          </mxGeometry>
        </mxCell>
        <mxCell id="qo67xkVb_f3bjXFK0P2n-35" value="&lt;span style=&quot;color: rgb(0, 0, 0); font-family: Helvetica; font-size: 20px; font-style: normal; font-variant-ligatures: normal; font-variant-caps: normal; font-weight: 400; letter-spacing: normal; orphans: 2; text-align: center; text-indent: 0px; text-transform: none; widows: 2; word-spacing: 0px; -webkit-text-stroke-width: 0px; background-color: rgb(255, 255, 255); text-decoration-thickness: initial; text-decoration-style: initial; text-decoration-color: initial; float: none; display: inline !important;&quot;&gt;\( a^{2&#39;} \)&lt;/span&gt;" style="text;whiteSpace=wrap;html=1;" vertex="1" parent="1">
          <mxGeometry x="188" y="460" width="20" height="40" as="geometry" />
        </mxCell>
        <mxCell id="qo67xkVb_f3bjXFK0P2n-36" value="&lt;span style=&quot;color: rgb(0, 0, 0); font-family: Helvetica; font-size: 20px; font-style: normal; font-variant-ligatures: normal; font-variant-caps: normal; font-weight: 400; letter-spacing: normal; orphans: 2; text-align: center; text-indent: 0px; text-transform: none; widows: 2; word-spacing: 0px; -webkit-text-stroke-width: 0px; background-color: rgb(255, 255, 255); text-decoration-thickness: initial; text-decoration-style: initial; text-decoration-color: initial; float: none; display: inline !important;&quot;&gt;\( a^{n&#39;} \)&lt;/span&gt;" style="text;whiteSpace=wrap;html=1;" vertex="1" parent="1">
          <mxGeometry x="425" y="460" width="20" height="40" as="geometry" />
        </mxCell>
        <mxCell id="qo67xkVb_f3bjXFK0P2n-37" value="" style="endArrow=none;dashed=1;html=1;dashPattern=1 3;strokeWidth=2;rounded=0;" edge="1" parent="1">
          <mxGeometry width="50" height="50" relative="1" as="geometry">
            <mxPoint x="310" y="479.5" as="sourcePoint" />
            <mxPoint x="360" y="479.5" as="targetPoint" />
          </mxGeometry>
        </mxCell>
        <mxCell id="qo67xkVb_f3bjXFK0P2n-38" value="" style="endArrow=none;dashed=1;html=1;dashPattern=1 3;strokeWidth=2;rounded=0;" edge="1" parent="1">
          <mxGeometry width="50" height="50" relative="1" as="geometry">
            <mxPoint x="313" y="694.5" as="sourcePoint" />
            <mxPoint x="363" y="694.5" as="targetPoint" />
          </mxGeometry>
        </mxCell>
        <mxCell id="qo67xkVb_f3bjXFK0P2n-39" style="edgeStyle=orthogonalEdgeStyle;rounded=0;orthogonalLoop=1;jettySize=auto;html=1;exitX=0.25;exitY=0;exitDx=0;exitDy=0;entryX=0.07;entryY=1.02;entryDx=0;entryDy=0;entryPerimeter=0;strokeWidth=2;dashed=1;strokeColor=#FF0000;startArrow=classic;startFill=1;endArrow=none;endFill=0;" edge="1" parent="1">
          <mxGeometry relative="1" as="geometry">
            <mxPoint x="143.75" y="451" as="targetPoint" />
            <mxPoint x="143.75" y="500" as="sourcePoint" />
          </mxGeometry>
        </mxCell>
        <mxCell id="qo67xkVb_f3bjXFK0P2n-40" value="\( \frac{\partial\pi_{\theta _2}&#39;}{\partial\theta _2} \)" style="text;html=1;strokeColor=none;fillColor=none;align=center;verticalAlign=middle;whiteSpace=wrap;rounded=0;fontSize=15;fontColor=#000000;" vertex="1" parent="1">
          <mxGeometry x="249.25" y="460" width="17" height="30" as="geometry" />
        </mxCell>
        <mxCell id="qo67xkVb_f3bjXFK0P2n-41" style="edgeStyle=orthogonalEdgeStyle;rounded=0;orthogonalLoop=1;jettySize=auto;html=1;exitX=0.25;exitY=0;exitDx=0;exitDy=0;entryX=0.07;entryY=1.02;entryDx=0;entryDy=0;entryPerimeter=0;strokeWidth=2;dashed=1;strokeColor=#FF0000;startArrow=classic;startFill=1;endArrow=none;endFill=0;" edge="1" parent="1">
          <mxGeometry relative="1" as="geometry">
            <mxPoint x="240" y="451" as="targetPoint" />
            <mxPoint x="240" y="500" as="sourcePoint" />
          </mxGeometry>
        </mxCell>
        <mxCell id="qo67xkVb_f3bjXFK0P2n-42" value="\( \frac{\partial\pi_{\theta _n}&#39;}{\partial\theta _n} \)" style="text;html=1;strokeColor=none;fillColor=none;align=center;verticalAlign=middle;whiteSpace=wrap;rounded=0;fontSize=15;fontColor=#000000;" vertex="1" parent="1">
          <mxGeometry x="489.25" y="460" width="17" height="30" as="geometry" />
        </mxCell>
        <mxCell id="qo67xkVb_f3bjXFK0P2n-43" style="edgeStyle=orthogonalEdgeStyle;rounded=0;orthogonalLoop=1;jettySize=auto;html=1;exitX=0.25;exitY=0;exitDx=0;exitDy=0;entryX=0.07;entryY=1.02;entryDx=0;entryDy=0;entryPerimeter=0;strokeWidth=2;dashed=1;strokeColor=#FF0000;startArrow=classic;startFill=1;endArrow=none;endFill=0;" edge="1" parent="1">
          <mxGeometry relative="1" as="geometry">
            <mxPoint x="480" y="451" as="targetPoint" />
            <mxPoint x="480" y="500" as="sourcePoint" />
          </mxGeometry>
        </mxCell>
        <mxCell id="qo67xkVb_f3bjXFK0P2n-44" value="&lt;font style=&quot;font-size: 20px;&quot;&gt;Agent 1&lt;/font&gt;" style="text;html=1;strokeColor=none;fillColor=none;align=center;verticalAlign=middle;whiteSpace=wrap;rounded=0;" vertex="1" parent="1">
          <mxGeometry x="83" y="678" width="82" height="30" as="geometry" />
        </mxCell>
        <mxCell id="qo67xkVb_f3bjXFK0P2n-45" value="&lt;font style=&quot;font-size: 20px;&quot;&gt;Agent 2&lt;/font&gt;" style="text;html=1;strokeColor=none;fillColor=none;align=center;verticalAlign=middle;whiteSpace=wrap;rounded=0;" vertex="1" parent="1">
          <mxGeometry x="190" y="678" width="82" height="30" as="geometry" />
        </mxCell>
        <mxCell id="qo67xkVb_f3bjXFK0P2n-46" value="&lt;font style=&quot;font-size: 20px;&quot;&gt;Agent n&lt;/font&gt;" style="text;html=1;strokeColor=none;fillColor=none;align=center;verticalAlign=middle;whiteSpace=wrap;rounded=0;" vertex="1" parent="1">
          <mxGeometry x="424.25" y="678" width="82" height="30" as="geometry" />
        </mxCell>
        <mxCell id="qo67xkVb_f3bjXFK0P2n-47" style="edgeStyle=orthogonalEdgeStyle;rounded=0;orthogonalLoop=1;jettySize=auto;html=1;exitX=0.5;exitY=0;exitDx=0;exitDy=0;entryX=0.9;entryY=0.973;entryDx=0;entryDy=0;entryPerimeter=0;" edge="1" parent="1">
          <mxGeometry relative="1" as="geometry">
            <mxPoint x="-129.25" y="649" as="sourcePoint" />
            <mxPoint x="-129.25" y="618" as="targetPoint" />
          </mxGeometry>
        </mxCell>
        <mxCell id="qo67xkVb_f3bjXFK0P2n-48" style="edgeStyle=orthogonalEdgeStyle;rounded=0;orthogonalLoop=1;jettySize=auto;html=1;exitX=0.5;exitY=0;exitDx=0;exitDy=0;entryX=0.9;entryY=0.973;entryDx=0;entryDy=0;entryPerimeter=0;" edge="1" parent="1">
          <mxGeometry relative="1" as="geometry">
            <mxPoint x="-191.75" y="649" as="sourcePoint" />
            <mxPoint x="-191.75" y="618" as="targetPoint" />
          </mxGeometry>
        </mxCell>
        <mxCell id="qo67xkVb_f3bjXFK0P2n-49" value="\(s \)" style="text;html=1;strokeColor=none;fillColor=none;align=center;verticalAlign=middle;whiteSpace=wrap;rounded=0;fontSize=20;fontColor=#000000;" vertex="1" parent="1">
          <mxGeometry x="-240" y="647" width="30" height="30" as="geometry" />
        </mxCell>
        <mxCell id="qo67xkVb_f3bjXFK0P2n-50" style="edgeStyle=orthogonalEdgeStyle;rounded=0;orthogonalLoop=1;jettySize=auto;html=1;exitX=0;exitY=0.5;exitDx=0;exitDy=0;entryX=1;entryY=0.5;entryDx=0;entryDy=0;" edge="1" parent="1" source="qo67xkVb_f3bjXFK0P2n-51" target="qo67xkVb_f3bjXFK0P2n-17">
          <mxGeometry relative="1" as="geometry" />
        </mxCell>
        <mxCell id="qo67xkVb_f3bjXFK0P2n-51" value="\(s \)" style="text;html=1;strokeColor=none;fillColor=none;align=center;verticalAlign=middle;whiteSpace=wrap;rounded=0;fontSize=20;fontColor=#000000;" vertex="1" parent="1">
          <mxGeometry x="560" y="510" width="30" height="30" as="geometry" />
        </mxCell>
        <mxCell id="qo67xkVb_f3bjXFK0P2n-52" value="\( \pi_{\theta _{1}}&#39;&amp;nbsp; &amp;nbsp;\)" style="text;html=1;strokeColor=none;fillColor=none;align=center;verticalAlign=middle;whiteSpace=wrap;rounded=0;fontSize=20;" vertex="1" parent="1">
          <mxGeometry x="-199.25" y="451" width="22.5" height="26" as="geometry" />
        </mxCell>
        <mxCell id="qo67xkVb_f3bjXFK0P2n-53" value="\( \pi_{\theta _{2}}&#39;&lt;br&gt;&amp;nbsp; \)" style="text;html=1;strokeColor=none;fillColor=none;align=center;verticalAlign=middle;whiteSpace=wrap;rounded=0;fontSize=20;" vertex="1" parent="1">
          <mxGeometry x="-138" y="451" width="22.5" height="26" as="geometry" />
        </mxCell>
        <mxCell id="qo67xkVb_f3bjXFK0P2n-54" value="\( \pi_{\theta _{n}}&#39;&lt;br&gt;&amp;nbsp; \)" style="text;html=1;strokeColor=none;fillColor=none;align=center;verticalAlign=middle;whiteSpace=wrap;rounded=0;fontSize=20;" vertex="1" parent="1">
          <mxGeometry x="-28" y="451" width="22.5" height="26" as="geometry" />
        </mxCell>
        <mxCell id="qo67xkVb_f3bjXFK0P2n-55" style="edgeStyle=orthogonalEdgeStyle;rounded=0;orthogonalLoop=1;jettySize=auto;html=1;exitX=0.25;exitY=0;exitDx=0;exitDy=0;entryX=0.5;entryY=1;entryDx=0;entryDy=0;" edge="1" parent="1">
          <mxGeometry relative="1" as="geometry">
            <mxPoint x="-129.25" y="498" as="sourcePoint" />
            <mxPoint x="-129.25" y="477" as="targetPoint" />
          </mxGeometry>
        </mxCell>
        <mxCell id="qo67xkVb_f3bjXFK0P2n-56" style="edgeStyle=orthogonalEdgeStyle;rounded=0;orthogonalLoop=1;jettySize=auto;html=1;exitX=0.25;exitY=0;exitDx=0;exitDy=0;entryX=0.5;entryY=1;entryDx=0;entryDy=0;" edge="1" parent="1">
          <mxGeometry relative="1" as="geometry">
            <mxPoint x="-20" y="498" as="sourcePoint" />
            <mxPoint x="-20" y="477" as="targetPoint" />
          </mxGeometry>
        </mxCell>
        <mxCell id="qo67xkVb_f3bjXFK0P2n-57" style="edgeStyle=orthogonalEdgeStyle;rounded=0;orthogonalLoop=1;jettySize=auto;html=1;endArrow=classic;endFill=1;fillColor=#fff2cc;strokeColor=#000000;dashed=1;" edge="1" parent="1">
          <mxGeometry relative="1" as="geometry">
            <mxPoint x="-92" y="498" as="sourcePoint" />
            <mxPoint x="-112" y="468" as="targetPoint" />
            <Array as="points">
              <mxPoint x="-92" y="488" />
              <mxPoint x="-92" y="488" />
            </Array>
          </mxGeometry>
        </mxCell>
        <mxCell id="qo67xkVb_f3bjXFK0P2n-58" style="edgeStyle=orthogonalEdgeStyle;rounded=0;orthogonalLoop=1;jettySize=auto;html=1;endArrow=classic;endFill=1;fillColor=#fff2cc;strokeColor=#000000;dashed=1;" edge="1" parent="1">
          <mxGeometry relative="1" as="geometry">
            <mxPoint x="16" y="498" as="sourcePoint" />
            <mxPoint x="-4" y="468" as="targetPoint" />
            <Array as="points">
              <mxPoint x="16" y="488" />
              <mxPoint x="16" y="488" />
            </Array>
          </mxGeometry>
        </mxCell>
        <mxCell id="qo67xkVb_f3bjXFK0P2n-59" style="edgeStyle=orthogonalEdgeStyle;rounded=0;orthogonalLoop=1;jettySize=auto;html=1;exitX=1;exitY=0.5;exitDx=0;exitDy=0;entryX=0.56;entryY=0.995;entryDx=0;entryDy=0;entryPerimeter=0;endArrow=none;endFill=0;dashed=1;" edge="1" parent="1">
          <mxGeometry relative="1" as="geometry">
            <mxPoint x="-10" y="661" as="sourcePoint" />
            <mxPoint x="10" y="635" as="targetPoint" />
          </mxGeometry>
        </mxCell>
        <mxCell id="qo67xkVb_f3bjXFK0P2n-60" style="edgeStyle=orthogonalEdgeStyle;rounded=0;orthogonalLoop=1;jettySize=auto;html=1;exitX=1;exitY=0.5;exitDx=0;exitDy=0;entryX=0.56;entryY=0.995;entryDx=0;entryDy=0;entryPerimeter=0;endArrow=none;endFill=0;dashed=1;" edge="1" parent="1">
          <mxGeometry relative="1" as="geometry">
            <mxPoint x="-178.75" y="662" as="sourcePoint" />
            <mxPoint x="-158.75" y="636" as="targetPoint" />
          </mxGeometry>
        </mxCell>
        <mxCell id="qo67xkVb_f3bjXFK0P2n-61" style="edgeStyle=orthogonalEdgeStyle;rounded=0;orthogonalLoop=1;jettySize=auto;html=1;endArrow=classic;endFill=1;fillColor=#fff2cc;strokeColor=#000000;dashed=1;" edge="1" parent="1">
          <mxGeometry relative="1" as="geometry">
            <mxPoint x="-152" y="500" as="sourcePoint" />
            <mxPoint x="-172" y="470" as="targetPoint" />
            <Array as="points">
              <mxPoint x="-152" y="490" />
              <mxPoint x="-152" y="490" />
            </Array>
          </mxGeometry>
        </mxCell>
        <mxCell id="qo67xkVb_f3bjXFK0P2n-62" value="&lt;span style=&quot;color: rgb(0, 0, 0); font-family: Helvetica; font-size: 20px; font-style: normal; font-variant-ligatures: normal; font-variant-caps: normal; font-weight: 400; letter-spacing: normal; orphans: 2; text-align: center; text-indent: 0px; text-transform: none; widows: 2; word-spacing: 0px; -webkit-text-stroke-width: 0px; background-color: rgb(255, 255, 255); text-decoration-thickness: initial; text-decoration-style: initial; text-decoration-color: initial; float: none; display: inline !important;&quot;&gt;\( a^{1&#39;} \)&lt;/span&gt;" style="text;whiteSpace=wrap;html=1;" vertex="1" parent="1">
          <mxGeometry x="-200" y="400" width="20" height="40" as="geometry" />
        </mxCell>
        <mxCell id="qo67xkVb_f3bjXFK0P2n-63" value="&lt;span style=&quot;color: rgb(0, 0, 0); font-family: Helvetica; font-size: 20px; font-style: normal; font-variant-ligatures: normal; font-variant-caps: normal; font-weight: 400; letter-spacing: normal; orphans: 2; text-align: center; text-indent: 0px; text-transform: none; widows: 2; word-spacing: 0px; -webkit-text-stroke-width: 0px; background-color: rgb(255, 255, 255); text-decoration-thickness: initial; text-decoration-style: initial; text-decoration-color: initial; float: none; display: inline !important;&quot;&gt;\( a^{2&#39;} \)&lt;/span&gt;" style="text;whiteSpace=wrap;html=1;" vertex="1" parent="1">
          <mxGeometry x="-138.75" y="400" width="20" height="40" as="geometry" />
        </mxCell>
        <mxCell id="qo67xkVb_f3bjXFK0P2n-64" value="&lt;span style=&quot;color: rgb(0, 0, 0); font-family: Helvetica; font-size: 20px; font-style: normal; font-variant-ligatures: normal; font-variant-caps: normal; font-weight: 400; letter-spacing: normal; orphans: 2; text-align: center; text-indent: 0px; text-transform: none; widows: 2; word-spacing: 0px; -webkit-text-stroke-width: 0px; background-color: rgb(255, 255, 255); text-decoration-thickness: initial; text-decoration-style: initial; text-decoration-color: initial; float: none; display: inline !important;&quot;&gt;\( a^{n&#39;} \)&lt;/span&gt;" style="text;whiteSpace=wrap;html=1;" vertex="1" parent="1">
          <mxGeometry x="-28.75" y="400" width="20" height="40" as="geometry" />
        </mxCell>
        <mxCell id="qo67xkVb_f3bjXFK0P2n-65" style="edgeStyle=orthogonalEdgeStyle;rounded=0;orthogonalLoop=1;jettySize=auto;html=1;exitX=0.25;exitY=0;exitDx=0;exitDy=0;entryX=0.5;entryY=1;entryDx=0;entryDy=0;" edge="1" parent="1">
          <mxGeometry relative="1" as="geometry">
            <mxPoint x="-190.5" y="454" as="sourcePoint" />
            <mxPoint x="-190.5" y="433" as="targetPoint" />
          </mxGeometry>
        </mxCell>
        <mxCell id="qo67xkVb_f3bjXFK0P2n-66" style="edgeStyle=orthogonalEdgeStyle;rounded=0;orthogonalLoop=1;jettySize=auto;html=1;exitX=0.25;exitY=0;exitDx=0;exitDy=0;entryX=0.5;entryY=1;entryDx=0;entryDy=0;" edge="1" parent="1">
          <mxGeometry relative="1" as="geometry">
            <mxPoint x="-129.25" y="454" as="sourcePoint" />
            <mxPoint x="-129.25" y="433" as="targetPoint" />
          </mxGeometry>
        </mxCell>
        <mxCell id="qo67xkVb_f3bjXFK0P2n-67" style="edgeStyle=orthogonalEdgeStyle;rounded=0;orthogonalLoop=1;jettySize=auto;html=1;exitX=0.25;exitY=0;exitDx=0;exitDy=0;entryX=0.5;entryY=1;entryDx=0;entryDy=0;" edge="1" parent="1">
          <mxGeometry relative="1" as="geometry">
            <mxPoint x="-19.25" y="454" as="sourcePoint" />
            <mxPoint x="-19.25" y="433" as="targetPoint" />
          </mxGeometry>
        </mxCell>
        <mxCell id="qo67xkVb_f3bjXFK0P2n-68" value="&lt;font style=&quot;font-size: 25px;&quot;&gt;Individual-Global-Consistency&lt;/font&gt;" style="rounded=1;whiteSpace=wrap;html=1;fillColor=default;strokeColor=#FF0000;dashed=1;dashPattern=8 8;strokeWidth=2;" vertex="1" parent="1">
          <mxGeometry x="100" y="570" width="430" height="50" as="geometry" />
        </mxCell>
        <mxCell id="qo67xkVb_f3bjXFK0P2n-69" style="edgeStyle=orthogonalEdgeStyle;rounded=0;orthogonalLoop=1;jettySize=auto;html=1;exitX=0.25;exitY=0;exitDx=0;exitDy=0;entryX=0.07;entryY=1.02;entryDx=0;entryDy=0;entryPerimeter=0;strokeWidth=2;" edge="1" parent="1" target="qo67xkVb_f3bjXFK0P2n-17">
          <mxGeometry relative="1" as="geometry">
            <mxPoint x="130" y="560" as="targetPoint" />
            <mxPoint x="130" y="680" as="sourcePoint" />
          </mxGeometry>
        </mxCell>
        <mxCell id="qo67xkVb_f3bjXFK0P2n-70" value="\( \pi_{\theta _{1}}&amp;nbsp; \)" style="edgeLabel;html=1;align=center;verticalAlign=middle;resizable=0;points=[];fontSize=20;" vertex="1" connectable="0" parent="qo67xkVb_f3bjXFK0P2n-69">
          <mxGeometry x="0.2486" y="1" relative="1" as="geometry">
            <mxPoint x="-5" y="40" as="offset" />
          </mxGeometry>
        </mxCell>
        <mxCell id="qo67xkVb_f3bjXFK0P2n-71" style="edgeStyle=orthogonalEdgeStyle;rounded=0;orthogonalLoop=1;jettySize=auto;html=1;exitX=0.25;exitY=0;exitDx=0;exitDy=0;entryX=0.279;entryY=1;entryDx=0;entryDy=0;entryPerimeter=0;strokeWidth=2;" edge="1" parent="1" target="qo67xkVb_f3bjXFK0P2n-17">
          <mxGeometry relative="1" as="geometry">
            <mxPoint x="220" y="680" as="sourcePoint" />
          </mxGeometry>
        </mxCell>
        <mxCell id="qo67xkVb_f3bjXFK0P2n-72" value="\( \pi_{\theta _{2}} \)" style="edgeLabel;html=1;align=center;verticalAlign=middle;resizable=0;points=[];fontSize=20;" vertex="1" connectable="0" parent="qo67xkVb_f3bjXFK0P2n-71">
          <mxGeometry x="0.2308" y="-1" relative="1" as="geometry">
            <mxPoint x="-2" y="36" as="offset" />
          </mxGeometry>
        </mxCell>
        <mxCell id="qo67xkVb_f3bjXFK0P2n-73" style="edgeStyle=orthogonalEdgeStyle;rounded=0;orthogonalLoop=1;jettySize=auto;html=1;exitX=0.25;exitY=0;exitDx=0;exitDy=0;entryX=0.835;entryY=1;entryDx=0;entryDy=0;entryPerimeter=0;strokeWidth=2;" edge="1" parent="1" target="qo67xkVb_f3bjXFK0P2n-17">
          <mxGeometry relative="1" as="geometry">
            <mxPoint x="460" y="680" as="sourcePoint" />
            <Array as="points">
              <mxPoint x="459" y="680" />
            </Array>
          </mxGeometry>
        </mxCell>
        <mxCell id="qo67xkVb_f3bjXFK0P2n-74" value="\( \pi_{\theta _{n}}&amp;nbsp; \)" style="edgeLabel;html=1;align=center;verticalAlign=middle;resizable=0;points=[];fontSize=20;" vertex="1" connectable="0" parent="qo67xkVb_f3bjXFK0P2n-73">
          <mxGeometry x="0.2361" y="2" relative="1" as="geometry">
            <mxPoint x="2" y="39" as="offset" />
          </mxGeometry>
        </mxCell>
        <mxCell id="qo67xkVb_f3bjXFK0P2n-75" value="\(\frac{\partial\pi_{\theta _{\color{Red} n}}}{\partial\theta _n} \)" style="text;html=1;strokeColor=none;fillColor=none;align=center;verticalAlign=middle;whiteSpace=wrap;rounded=0;fontSize=15;fontColor=#000000;" vertex="1" parent="1">
          <mxGeometry x="482.75" y="631.5" width="30" height="30" as="geometry" />
        </mxCell>
        <mxCell id="qo67xkVb_f3bjXFK0P2n-76" value="\(\frac{\partial\pi_{\theta _{\color{Red} n}}}{\partial\theta _2} \)" style="text;html=1;strokeColor=none;fillColor=none;align=center;verticalAlign=middle;whiteSpace=wrap;rounded=0;fontSize=15;fontColor=#000000;" vertex="1" parent="1">
          <mxGeometry x="280" y="641" width="30" height="30" as="geometry" />
        </mxCell>
        <mxCell id="qo67xkVb_f3bjXFK0P2n-77" value="\(\frac{\partial\pi_{\theta _{\color{Red} 1}}}{\partial\theta _n} \)" style="text;html=1;strokeColor=none;fillColor=none;align=center;verticalAlign=middle;whiteSpace=wrap;rounded=0;fontSize=15;fontColor=#000000;" vertex="1" parent="1">
          <mxGeometry x="370" y="641" width="30" height="30" as="geometry" />
        </mxCell>
        <mxCell id="qo67xkVb_f3bjXFK0P2n-78" style="edgeStyle=orthogonalEdgeStyle;rounded=0;orthogonalLoop=1;jettySize=auto;html=1;exitX=0.5;exitY=0;exitDx=0;exitDy=0;entryX=0.9;entryY=0.973;entryDx=0;entryDy=0;entryPerimeter=0;" edge="1" parent="1">
          <mxGeometry relative="1" as="geometry">
            <mxPoint x="-225.5" y="649.5" as="sourcePoint" />
            <mxPoint x="-225.5" y="618.5" as="targetPoint" />
          </mxGeometry>
        </mxCell>
        <mxCell id="qo67xkVb_f3bjXFK0P2n-79" value="\(\frac{\partial\pi_{\theta _{\color{Red} 2}}}{\partial\theta _1} \)" style="text;html=1;strokeColor=none;fillColor=none;align=center;verticalAlign=middle;whiteSpace=wrap;rounded=0;fontSize=15;fontColor=#000000;" vertex="1" parent="1">
          <mxGeometry x="162" y="637" width="30" height="30" as="geometry" />
        </mxCell>
      </root>
    </mxGraphModel>
  </diagram>
</mxfile>
